<svg width="600" height="129" viewBox="0 0 600 129" fill="none" xmlns="http://www.w3.org/2000/svg">
<rect y="1" width="40" height="47" fill="#8AA170"/>
<rect x="24" y="48" width="16" height="17" fill="#8AA170"/>
<rect x="88" y="32" width="16" height="16" fill="#8AA170"/>
<rect y="96" width="16" height="17" fill="#8AA170"/>
<rect x="88" y="97" width="16" height="15" fill="#8AA170"/>
<rect y="65" width="40" height="32" fill="#8AA170"/>
<rect x="64" y="48" width="40" height="49" fill="#8AA170"/>
<rect x="64" y="1" width="40" height="31" fill="#8AA170"/>
<rect x="120" y="1" width="40" height="128" fill="#8AA170"/>
<rect x="160" y="17" width="8" height="64" fill="#8AA170"/>
<rect x="168" y="32" width="8" height="65" fill="#8AA170"/>
<rect x="176" y="48" width="8" height="64" fill="#8AA170"/>
<rect x="304" y="97" width="8" height="16" fill="#8AA170"/>
<rect x="344" y="32" width="8" height="17" fill="#8AA170"/>
<rect x="472" y="96" width="8" height="16" fill="#8AA170"/>
<rect x="488" y="32" width="8" height="64" fill="#8AA170"/>
<rect x="520" width="16" height="49" fill="#8AA170"/>
<rect x="512" y="16" width="16" height="65" fill="#8AA170"/>
<rect x="456" y="49" width="8" height="16" fill="#8AA170"/>
<rect x="392" y="16" width="8" height="16" fill="#8AA170"/>
<rect x="416" y="32" width="8" height="33" fill="#8AA170"/>
<rect x="304" y="32" width="40" height="32" fill="#8AA170"/>
<rect x="328" y="80" width="24" height="17" fill="#8AA170"/>
<rect x="304" y="16" width="40" height="16" fill="#8AA170"/>
<rect x="184" y="1" width="40" height="128" fill="#8AA170"/>
<rect x="248" y="1" width="40" height="128" fill="#8AA170"/>
<rect x="288" y="1" width="32" height="31" fill="#8AA170"/>
<rect x="288" y="64" width="40" height="33" fill="#8AA170"/>
<rect x="312" y="97" width="40" height="32" fill="#8AA170"/>
<rect x="360" y="112" width="40" height="17" fill="#8AA170"/>
<rect x="368" y="81" width="104" height="32" fill="#8AA170"/>
<rect x="384" y="32" width="32" height="33" fill="#8AA170"/>
<rect x="376" y="65" width="40" height="16" fill="#8AA170"/>
<rect x="424" y="65" width="40" height="16" fill="#8AA170"/>
<rect x="424" y="32" width="32" height="33" fill="#8AA170"/>
<rect x="400" width="48" height="32" fill="#8AA170"/>
<rect x="440" y="112" width="40" height="17" fill="#8AA170"/>
<rect x="560" y="64" width="40" height="65" fill="#8AA170"/>
<rect x="544" y="64" width="16" height="17" fill="#8AA170"/>
<rect x="576" y="16" width="16" height="16" fill="#8AA170"/>
<rect x="552" y="32" width="48" height="17" fill="#8AA170"/>
<rect x="536" width="40" height="33" fill="#8AA170"/>
<rect x="536" y="96" width="24" height="33" fill="#8AA170"/>
<rect x="512" y="81" width="24" height="48" fill="#8AA170"/>
<rect x="496" y="16" width="16" height="97" fill="#8AA170"/>
<rect x="16" y="97" width="72" height="32" fill="#8AA170"/>
</svg>
