<svg width="598" height="152" viewBox="0 0 598 152" fill="none" xmlns="http://www.w3.org/2000/svg">
<path d="M543.314 151.988C531.843 151.988 521.874 148.984 513.408 142.975C504.941 136.83 498.387 128.091 493.744 116.756C489.101 105.422 486.779 91.9031 486.779 76.199C486.779 60.4949 489.032 46.9757 493.539 35.6414C498.045 24.1706 504.532 15.3627 512.998 9.21761C521.465 3.07254 531.57 0 543.314 0C553.419 0 562.091 1.98008 569.328 5.94024C576.702 9.9004 582.779 15.9089 587.559 23.9658C592.338 31.8861 595.752 41.9231 597.8 54.0767L560.315 56.125C559.359 47.5219 557.448 41.3769 554.58 37.6898C551.712 34.0028 548.094 32.1592 543.724 32.1592C539.627 32.1592 536.145 33.8662 533.277 37.2801C530.409 40.5575 528.224 45.4736 526.722 52.0283C525.22 58.5831 524.469 66.64 524.469 76.199C524.469 85.6214 525.288 93.61 526.927 100.165C528.702 106.583 531.16 111.499 534.301 114.913C537.579 118.19 541.539 119.829 546.182 119.829C549.596 119.829 552.463 119.078 554.785 117.576C557.243 115.937 559.086 113.547 560.315 110.407C561.681 107.266 562.432 103.237 562.569 98.3213H542.495V71.6926H596.571V148.711H575.064L573.425 119.215L581.004 112.25C581.004 119.078 579.433 125.564 576.293 131.71C573.288 137.718 568.987 142.634 563.388 146.458C557.789 150.145 551.098 151.988 543.314 151.988Z" fill="url(#paint0_linear_253_83)"/>
<path d="M361.092 148.709L397.962 3.27539H441.388L478.258 148.709H441.797L419.675 51.207L397.553 148.709H361.092ZM390.998 124.743L399.191 93.8129H440.158L448.352 124.743H390.998Z" fill="url(#paint1_linear_253_83)"/>
<path d="M246.871 148.709V3.27539H295.622C311.599 3.27539 323.958 7.23555 332.697 15.1559C341.574 23.0762 346.012 33.7277 346.012 47.1103C346.012 54.4844 344.51 60.9026 341.505 66.3649C338.638 71.6906 334.541 75.9239 329.215 79.0647C323.889 82.069 317.744 83.8442 310.78 84.3904L309.961 81.5227C321.568 81.5227 330.171 83.7076 335.77 88.0775C341.505 92.4473 344.783 99.4117 345.602 108.971L348.879 148.709H311.599L309.551 120.442C309.141 114.296 308.254 109.79 306.888 106.922C305.522 103.918 303.474 102.006 300.743 101.187C298.012 100.231 294.393 99.7531 289.887 99.7531H283.742V148.709H246.871ZM283.742 67.389H293.983C298.626 67.389 302.177 66.0235 304.635 63.2923C307.093 60.4246 308.322 56.4645 308.322 51.4118C308.322 46.3592 307.093 42.4673 304.635 39.7362C302.177 37.005 298.626 35.6395 293.983 35.6395H283.742V67.389Z" fill="url(#paint2_linear_253_83)"/>
<path d="M124.869 148.709V3.27539H155.595L188.368 76.4018V3.27539H223.19V148.709H192.465L159.691 75.5825V148.709H124.869Z" fill="url(#paint3_linear_253_83)"/>
<path d="M102.418 98.7314C102.418 116.484 97.9796 129.798 89.1035 138.674C80.2273 147.55 67.5959 151.988 51.209 151.988C34.8221 151.988 22.1907 147.55 13.3145 138.674C4.43833 129.798 6.83167e-05 116.484 0 98.7314V74.043L36.8701 62.4756V102.828C36.8702 108.29 38.0996 112.592 40.5576 115.732C43.0156 118.873 46.5661 120.443 51.209 120.443C55.8519 120.443 59.4023 118.873 61.8604 115.732C64.3183 112.592 65.5478 108.29 65.5479 102.828V53.4785L102.418 41.9121V98.7314ZM36.8701 42.3496L0 53.916V3.07227H36.8701V42.3496ZM102.418 21.7861L65.5479 33.3525V3.07227H102.418V21.7861Z" fill="url(#paint4_linear_253_83)"/>
<defs>
<linearGradient id="paint0_linear_253_83" x1="529.724" y1="-23.2041" x2="529.724" y2="439.277" gradientUnits="userSpaceOnUse">
<stop stop-color="white"/>
<stop offset="1" stop-color="#B1B1B1"/>
</linearGradient>
<linearGradient id="paint1_linear_253_83" x1="406.414" y1="-18.928" x2="406.414" y2="423.608" gradientUnits="userSpaceOnUse">
<stop stop-color="white"/>
<stop offset="1" stop-color="#B1B1B1"/>
</linearGradient>
<linearGradient id="paint2_linear_253_83" x1="286.33" y1="-18.928" x2="286.33" y2="423.608" gradientUnits="userSpaceOnUse">
<stop stop-color="white"/>
<stop offset="1" stop-color="#B1B1B1"/>
</linearGradient>
<linearGradient id="paint3_linear_253_83" x1="162.902" y1="-18.928" x2="162.902" y2="423.608" gradientUnits="userSpaceOnUse">
<stop stop-color="white"/>
<stop offset="1" stop-color="#B1B1B1"/>
</linearGradient>
<linearGradient id="paint4_linear_253_83" x1="39.6172" y1="-19.6628" x2="39.6172" y2="433.47" gradientUnits="userSpaceOnUse">
<stop stop-color="white"/>
<stop offset="1" stop-color="#B1B1B1"/>
</linearGradient>
</defs>
</svg>
