<svg width="358" height="81" viewBox="0 0 358 81" fill="none" xmlns="http://www.w3.org/2000/svg">
<path d="M49 49.3594C49 39.9705 41.3888 32.3594 32 32.3594C22.6112 32.3594 15 39.9705 15 49.3594C15 58.7482 22.6112 66.3594 32 66.3594C41.3888 66.3594 49 58.7482 49 49.3594Z" fill="white"/>
<path d="M91.9375 49.3594C91.9375 39.9705 84.3263 32.3594 74.9375 32.3594C65.5487 32.3594 57.9375 39.9705 57.9375 49.3594C57.9375 58.7482 65.5487 66.3594 74.9375 66.3594C84.3263 66.3594 91.9375 58.7482 91.9375 49.3594Z" fill="white"/>
<path d="M134.871 49.3594C134.871 39.9705 127.26 32.3594 117.871 32.3594C108.482 32.3594 100.871 39.9705 100.871 49.3594C100.871 58.7482 108.482 66.3594 117.871 66.3594C127.26 66.3594 134.871 58.7482 134.871 49.3594Z" fill="white"/>
<path d="M160.926 60.728H182.558V66.36H154.078V19H160.926V60.728Z" fill="white"/>
<path d="M218.404 48.8249C218.404 49.6569 218.404 50.8729 218.276 51.6409H192.228C192.868 57.8489 196.132 61.8169 202.084 61.8169C206.18 61.8169 209.508 59.8969 211.876 56.8249L216.868 59.5129C213.668 64.2489 208.42 67.0009 202.148 67.0009C192.1 67.0009 185.316 59.9609 185.316 49.4009C185.316 38.7129 191.908 31.5449 201.892 31.5449C211.812 31.5449 218.404 38.4569 218.404 48.8249ZM201.892 36.7289C196.26 36.7289 192.804 40.6969 192.228 47.1609H211.684C211.108 40.6329 207.524 36.7289 201.892 36.7289Z" fill="white"/>
<path d="M237.384 61.3672C239.56 61.3672 241.672 61.0472 243.784 60.2152V65.4632C241.352 66.5512 238.408 66.9992 235.272 66.9992C229.384 66.9992 225.48 62.9672 225.48 56.9512V22.1992H232.008V32.1832H243.272V37.5592H232.008V55.6072C232.008 59.0632 234.184 61.3672 237.384 61.3672Z" fill="white"/>
<path d="M256.076 37.3049C258.636 33.5289 263.18 31.5449 269.132 31.5449L268.684 37.5609C260.94 37.5609 256.204 41.4009 256.204 47.2249V66.3609H249.676V32.1849H255.948L256.076 37.3049Z" fill="white"/>
<path d="M299.561 32.1849H305.897V66.3609H299.561L299.433 60.0889C297.001 64.3129 292.841 67.0009 286.825 67.0009C277.417 67.0009 270.441 59.9609 270.441 49.4009C270.441 38.7129 277.417 31.5449 286.825 31.5449C292.841 31.5449 297.001 34.2329 299.433 38.4569L299.561 32.1849ZM288.297 61.3689C294.889 61.3689 299.369 56.5689 299.369 49.2729C299.369 42.0409 294.889 37.1769 288.297 37.1769C281.641 37.1769 277.225 42.0409 277.225 49.3369C277.225 56.5689 281.641 61.3689 288.297 61.3689Z" fill="white"/>
<path d="M313.121 66.3596V62.1356L332.193 37.5596H313.441V32.1836H341.473V36.4076L322.401 60.9196H342.241V66.3596H313.121Z" fill="white"/>
</svg>
