<svg width="36" height="10" viewBox="0 0 36 10" fill="none" xmlns="http://www.w3.org/2000/svg">
<g clip-path="url(#clip0_282_29)">
<path d="M8.18506 3.4928L8.17387 3.48425L8.12216 3.44553L8.11229 3.43838L4.96971 1.08423H4.96932L4.88574 1.02179C4.88574 1.02179 4.88527 1.02179 4.88527 1.02132C4.7098 0.902668 4.50274 0.839445 4.29092 0.839846H4.28509C4.0474 0.839846 3.82813 0.917599 3.65116 1.04924C3.64665 1.05235 3.64261 1.05592 3.6381 1.05911L0.445219 3.45051C0.444753 3.45097 0.444286 3.45097 0.443897 3.45136L0.40883 3.47788C0.408364 3.47834 0.407897 3.47834 0.407509 3.47881C0.373815 3.50525 0.34191 3.53355 0.311794 3.56372C0.212795 3.66241 0.134284 3.7797 0.0807749 3.90884C0.0272659 4.03798 -0.000184949 4.17643 9.37778e-07 4.31622V8.08152C9.37778e-07 8.66911 0.476632 9.14582 1.06429 9.14582H1.49917C2.47008 9.14582 3.26076 8.36276 3.26613 7.39185V7.36899C3.26566 7.36541 3.26566 7.36137 3.26566 7.35771C3.26566 7.35406 3.26566 7.35009 3.26613 7.34652V7.34605C3.26525 7.24555 3.25304 7.14547 3.22974 7.04771C3.15987 6.74885 2.98974 6.48295 2.74766 6.29427C2.51034 6.10862 2.21779 6.00761 1.91648 6.00728H1.91523C1.89304 6.00731 1.87106 6.00295 1.85055 5.99446C1.83004 5.98598 1.81141 5.97353 1.79572 5.95783C1.78003 5.94214 1.76758 5.92351 1.75909 5.90301C1.75061 5.8825 1.74625 5.86052 1.74627 5.83833C1.74627 5.79167 1.76517 5.74938 1.79572 5.71882C1.81141 5.70312 1.83004 5.69067 1.85055 5.68219C1.87106 5.6737 1.89304 5.66934 1.91523 5.66937C2.2935 5.66937 2.63492 5.51394 2.88016 5.26373C3.12634 5.01309 3.26471 4.67609 3.26566 4.32477V4.31171C3.26706 4.2677 3.28588 4.22773 3.31511 4.1985C3.34683 4.16685 3.38981 4.14907 3.43462 4.14907C3.47943 4.14907 3.52241 4.16685 3.55413 4.1985C3.58468 4.22906 3.6035 4.27128 3.6035 4.31801V4.31894C3.60309 4.67202 3.74136 5.01113 3.98854 5.26326C3.99211 5.26684 3.9953 5.27049 3.99888 5.27407C4.12415 5.39969 4.27303 5.49928 4.43695 5.56713C4.60088 5.63497 4.7766 5.66972 4.95401 5.66937C4.97621 5.6693 4.9982 5.67363 5.01872 5.6821C5.03925 5.69057 5.05789 5.70302 5.07359 5.71872C5.08928 5.73442 5.10172 5.75307 5.11018 5.7736C5.11864 5.79413 5.12296 5.81612 5.12289 5.83833C5.12287 5.88289 5.10525 5.92564 5.07387 5.95728C5.04249 5.98892 4.99989 6.0069 4.95533 6.00728H4.95447C4.85199 6.00728 4.74827 6.01895 4.64447 6.04367C4.34561 6.11354 4.07971 6.28367 3.89103 6.52575C3.70822 6.75906 3.60733 7.04609 3.60397 7.34247V7.35009C3.60397 7.35281 3.60443 7.35507 3.60443 7.35771V7.39006C3.60988 8.36136 4.40009 9.14535 5.37139 9.14535H7.5121C7.65189 9.14554 7.79034 9.11809 7.91948 9.06458C8.04862 9.01107 8.16591 8.93256 8.26461 8.83356C8.3636 8.73486 8.44212 8.61757 8.49563 8.48843C8.54913 8.35929 8.57658 8.22084 8.5764 8.08106V4.29826C8.5735 4.14364 8.537 3.9915 8.46942 3.8524C8.40185 3.7133 8.30482 3.59065 8.18506 3.4928ZM6.77531 4.25417H6.77484C6.72275 4.25417 6.67019 4.26 6.61763 4.2726C6.46599 4.30821 6.33108 4.3946 6.23531 4.51744C6.14261 4.63577 6.09146 4.78133 6.08976 4.93164V4.94423C6.08889 4.96082 6.08323 4.97679 6.07346 4.99022C6.0637 5.00365 6.05025 5.01396 6.03475 5.0199C6.01925 5.02584 6.00235 5.02716 5.98612 5.02369C5.96988 5.02023 5.95499 5.01213 5.94327 5.00037C5.92854 4.98578 5.91973 4.96625 5.91854 4.94556V4.93389C5.91813 4.8829 5.91194 4.83211 5.90011 4.78251C5.86459 4.63232 5.77945 4.49851 5.65846 4.4027C5.53747 4.3069 5.3877 4.2547 5.23337 4.25456H5.23299C5.22172 4.25457 5.21056 4.25236 5.20016 4.24805C5.18975 4.24374 5.1803 4.23742 5.17234 4.22944C5.16428 4.22155 5.1579 4.21211 5.15357 4.20169C5.14924 4.19127 5.14706 4.18008 5.14715 4.1688C5.14715 4.145 5.15663 4.12385 5.17234 4.10815C5.18029 4.10016 5.18974 4.09382 5.20015 4.0895C5.21056 4.08518 5.22172 4.08295 5.23299 4.08296C5.3242 4.08304 5.41451 4.06488 5.49861 4.02954C5.58271 3.99421 5.65889 3.94242 5.72268 3.87722C5.84756 3.75011 5.91772 3.57917 5.91815 3.40098V3.39382C5.91963 3.37181 5.92952 3.35121 5.94576 3.33629C5.96201 3.32137 5.98338 3.31327 6.00544 3.31367C6.02749 3.31407 6.04855 3.32294 6.06425 3.33844C6.07994 3.35394 6.08908 3.37488 6.08976 3.39693V3.39787C6.08976 3.49133 6.10865 3.58028 6.14232 3.66114C6.1759 3.74154 6.22436 3.81488 6.28515 3.8773L6.29059 3.88258C6.3542 3.94631 6.42976 3.99685 6.51294 4.03131C6.59611 4.06577 6.68528 4.08348 6.77531 4.08342C6.7991 4.08342 6.82025 4.09291 6.83596 4.10861C6.85166 4.12385 6.86115 4.14547 6.86115 4.16926C6.86067 4.19179 6.85144 4.21325 6.83542 4.22909C6.8194 4.24494 6.79784 4.25393 6.77531 4.25417ZM10.2392 7.48717V3.03538H11.8741C12.172 3.03538 12.4356 3.08929 12.6648 3.19711C12.8939 3.30495 13.0736 3.46178 13.203 3.66752C13.3324 3.8732 13.3971 4.12313 13.3971 4.4173C13.3971 4.70753 13.3315 4.95553 13.2003 5.16132C13.0691 5.36706 12.8894 5.52474 12.662 5.63484C12.4348 5.74448 12.1719 5.79968 11.8741 5.79968H11.0389V7.48756H10.2392V7.48717ZM11.0389 5.09344H11.8858C12.0308 5.09355 12.1563 5.06509 12.2622 5.00807C12.3655 4.95379 12.4513 4.87121 12.5093 4.76999C12.5681 4.66798 12.5975 4.55041 12.5974 4.4173C12.5975 4.2803 12.5681 4.16169 12.5093 4.0615C12.4505 3.96135 12.3682 3.88313 12.2622 3.82614C12.1562 3.76953 12.0308 3.74076 11.8858 3.74076H11.0389V5.09344ZM15.5845 4.14842V4.83033H15.3082C15.0885 4.83033 14.9124 4.89774 14.779 5.03342C14.6457 5.16871 14.579 5.35786 14.5791 5.60087V7.48912H13.8086V4.18388H14.5319V4.63454C14.6043 4.47681 14.7013 4.36178 14.823 4.28947C14.9816 4.19554 15.173 4.14842 15.3963 4.14842H15.5845ZM17.3947 7.48702C17.0811 7.48712 16.7959 7.41463 16.5392 7.26954C16.2823 7.12445 16.0788 6.9268 15.9279 6.67566C15.7769 6.42498 15.7014 6.13879 15.7014 5.8171C15.7014 5.49587 15.7769 5.20969 15.9279 4.95854C16.0755 4.71088 16.2854 4.50614 16.5366 4.36466C16.7913 4.21957 17.0775 4.14708 17.3952 4.14718C17.7087 4.14718 17.9931 4.21996 18.2478 4.36466C18.5026 4.50969 18.7055 4.70662 18.8565 4.95543C19.0075 5.20424 19.083 5.49147 19.083 5.8171C19.083 6.13879 19.0067 6.42498 18.8539 6.67566C18.7047 6.92306 18.4941 7.12765 18.2424 7.26954C17.9868 7.41416 17.7047 7.48702 17.3947 7.48702ZM17.3947 6.78125C17.5672 6.78119 17.7191 6.73998 17.8502 6.65762C17.9814 6.57543 18.0856 6.4609 18.162 6.31356C18.2384 6.1665 18.2766 6.00088 18.2766 5.81671C18.2766 5.62839 18.2384 5.46309 18.162 5.31979C18.0857 5.17687 17.9818 5.0632 17.8502 4.97876C17.7191 4.89432 17.5668 4.85256 17.3947 4.85256C17.2181 4.85256 17.0635 4.89478 16.9301 4.97876C16.7967 5.06325 16.6919 5.17693 16.6157 5.31979C16.5392 5.46309 16.5011 5.62847 16.5011 5.81663C16.5011 6.00096 16.5393 6.16658 16.6157 6.31348C16.692 6.46043 16.7972 6.57496 16.9301 6.65769C17.0636 6.73996 17.2185 6.78114 17.3947 6.78125ZM22.6364 4.96375C22.4931 4.71307 22.3003 4.51317 22.0573 4.36404C21.8142 4.2149 21.5415 4.14073 21.2396 4.14073C20.9926 4.14073 20.775 4.1888 20.5869 4.28496C20.4363 4.36178 20.311 4.46333 20.2104 4.58867V4.18474H19.487V8.58614H20.2575V7.10089C20.3518 7.19969 20.4646 7.28027 20.5958 7.34263C20.7898 7.43464 21.0024 7.48062 21.2338 7.48056C21.5433 7.48056 21.8196 7.40732 22.0631 7.25998C22.3062 7.11307 22.4983 6.91226 22.6395 6.65754C22.7806 6.40274 22.8511 6.12018 22.8511 5.81065C22.8512 5.49714 22.7796 5.21484 22.6364 4.96375ZM21.9368 6.31698C21.8604 6.46212 21.7536 6.57577 21.6166 6.65793C21.4795 6.74019 21.3223 6.78156 21.1462 6.78156C20.9777 6.78151 20.8258 6.7403 20.6906 6.65793C20.5553 6.57572 20.4494 6.46207 20.373 6.31698C20.2966 6.17173 20.2584 6.00521 20.2584 5.81741C20.2584 5.63308 20.2966 5.46747 20.373 5.32056C20.4495 5.17366 20.5554 5.05892 20.6906 4.97635C20.8258 4.89408 20.9776 4.8529 21.1462 4.8528C21.3227 4.85285 21.4795 4.89494 21.6166 4.97907C21.752 5.06184 21.8627 5.17963 21.9368 5.32002C22.0133 5.4634 22.0514 5.6287 22.0514 5.81687C22.0514 6.00513 22.0132 6.17184 21.9368 6.31698Z" fill="white"/>
<path d="M24.4814 7.48828C24.1405 7.48828 23.8435 7.40695 23.5906 7.24429C23.3376 7.08163 23.1642 6.86107 23.0703 6.5826L23.6467 6.30627C23.7289 6.48642 23.8435 6.62793 23.9908 6.72948C24.1377 6.83134 24.3014 6.88224 24.4819 6.88219C24.623 6.88214 24.7347 6.85085 24.8171 6.78834C24.8992 6.72583 24.9406 6.64317 24.9406 6.54124C24.9406 6.47867 24.924 6.42671 24.8907 6.38534C24.8575 6.34398 24.8121 6.30891 24.7555 6.27929C24.6962 6.24911 24.6342 6.22444 24.5704 6.20558L24.047 6.0587C23.7766 5.98056 23.5717 5.86058 23.4324 5.70025C23.2931 5.53941 23.2235 5.3492 23.2235 5.12962C23.2234 4.93368 23.2734 4.76221 23.3736 4.6152C23.4737 4.46825 23.6126 4.35379 23.7909 4.27106C23.9693 4.1888 24.1741 4.14761 24.4055 4.14751C24.7074 4.14751 24.9738 4.22029 25.2052 4.36499C25.4364 4.51018 25.601 4.714 25.6989 4.97644L25.1108 5.2527C25.056 5.10767 24.9639 4.99207 24.8345 4.90592C24.7052 4.81961 24.56 4.77649 24.3992 4.77654C24.2698 4.77644 24.1678 4.80577 24.0932 4.86456C24.0187 4.92344 23.9814 4.99982 23.9814 5.0937C23.9814 5.15248 23.9971 5.20338 24.0286 5.24641C24.06 5.28958 24.1042 5.32494 24.1611 5.35246C24.2177 5.37983 24.2837 5.40549 24.3579 5.42882L24.8696 5.5816C25.1324 5.66013 25.335 5.77746 25.4783 5.93421C25.6212 6.09104 25.6931 6.28333 25.6931 6.51068C25.6931 6.70297 25.6419 6.87231 25.5403 7.01919C25.4384 7.16604 25.2973 7.28076 25.1171 7.36333C24.9361 7.44692 24.7244 7.48828 24.4814 7.48828ZM27.6733 7.48812C27.3596 7.48823 27.0745 7.41574 26.8179 7.27065C26.5609 7.12556 26.3574 6.92791 26.2064 6.67676C26.0554 6.42609 25.98 6.1399 25.98 5.81821C25.98 5.49698 26.0555 5.21079 26.2064 4.95965C26.3541 4.71199 26.5639 4.50725 26.8152 4.36577C27.0699 4.22068 27.3561 4.14818 27.6737 4.14829C27.9873 4.14829 28.2717 4.22107 28.5264 4.36577C28.7812 4.5108 28.9841 4.70773 29.1352 4.95654C29.2861 5.20535 29.3616 5.49257 29.3616 5.81821C29.3616 6.1399 29.2852 6.42609 29.1325 6.67676C28.9833 6.92417 28.7727 7.12876 28.521 7.27065C28.2654 7.41527 27.9828 7.48812 27.6733 7.48812ZM27.6733 6.78235C27.8458 6.7823 27.9976 6.74109 28.1288 6.65872C28.26 6.57654 28.3642 6.46201 28.4406 6.31466C28.517 6.16761 28.5551 6.00199 28.5551 5.81782C28.5551 5.6295 28.517 5.46419 28.4406 5.32089C28.3642 5.17798 28.2605 5.06431 28.1288 4.97987C27.9976 4.89542 27.8453 4.85367 27.6733 4.85367C27.4967 4.85367 27.3422 4.89589 27.2087 4.97987C27.0754 5.06436 26.9705 5.17803 26.8942 5.32089C26.8179 5.46419 26.7796 5.62958 26.7796 5.81774C26.7796 6.00207 26.8178 6.16768 26.8942 6.31459C26.9706 6.46154 27.0757 6.57607 27.2087 6.6588C27.3422 6.74099 27.4967 6.78235 27.6733 6.78235ZM31.3092 7.48812C30.9915 7.48802 30.7064 7.41449 30.4538 7.26754C30.2009 7.12063 30.0018 6.9207 29.8567 6.66774C29.7117 6.41479 29.6392 6.12966 29.6393 5.81238C29.6392 5.49509 29.7117 5.21085 29.8567 4.95965C30.0019 4.70887 30.2009 4.51091 30.4538 4.36577C30.7068 4.22068 30.9919 4.14818 31.3092 4.14829C31.5365 4.14829 31.7481 4.18872 31.9444 4.26873C32.1403 4.34913 32.3101 4.45876 32.453 4.59802C32.5949 4.73598 32.7008 4.90655 32.7616 5.09486L32.0855 5.38877C32.0267 5.22787 31.9277 5.09847 31.7885 5.00055C31.6492 4.90258 31.4894 4.85359 31.3092 4.85359C31.1406 4.8537 30.9907 4.89491 30.8595 4.97722C30.7283 5.05941 30.6249 5.17308 30.5508 5.31817C30.4762 5.46331 30.4389 5.62999 30.439 5.81821C30.439 6.00642 30.4763 6.17307 30.5508 6.31816C30.6254 6.46325 30.7283 6.57693 30.8595 6.65919C30.9907 6.74156 31.1406 6.78277 31.3092 6.78282C31.4935 6.78282 31.6541 6.73383 31.7913 6.63587C31.9283 6.5379 32.0266 6.40672 32.0851 6.24189L32.7612 6.54785C32.6983 6.72793 32.5963 6.88965 32.4553 7.03303C32.3142 7.17633 32.1457 7.28775 31.9494 7.36815C31.7539 7.44769 31.5406 7.48812 31.3092 7.48812ZM35.9993 5.35977V7.4889H35.2288V5.54218C35.2288 5.40103 35.2014 5.27945 35.1466 5.17744C35.0918 5.07532 35.0163 4.99593 34.9202 4.93928C34.824 4.88267 34.7113 4.8539 34.5819 4.8539C34.4565 4.8538 34.3447 4.88226 34.2467 4.93928C34.1495 4.9955 34.0701 5.07806 34.0177 5.17744C33.9628 5.27937 33.9354 5.40067 33.9354 5.54218V7.4889H33.1649V3.03711H33.9354V4.53721C34.0043 4.43948 34.0937 4.35792 34.1973 4.2982C34.368 4.19844 34.5666 4.14813 34.7939 4.14813C35.0294 4.14813 35.2378 4.19891 35.4202 4.30092C35.5996 4.40004 35.7474 4.54782 35.8466 4.72724C35.9484 4.9096 35.9993 5.12044 35.9993 5.35977Z" fill="white"/>
</g>
<defs>
<clipPath id="clip0_282_29">
<rect width="36" height="10" fill="white"/>
</clipPath>
</defs>
</svg>
