<svg width="144" height="62" viewBox="0 0 144 62" fill="none" xmlns="http://www.w3.org/2000/svg">
<path d="M14.6016 49.0006V21.7702H25.4495V49.0006H14.6016ZM25.4495 34.2785L20.413 29.7954C21.8151 26.8436 23.4386 24.6851 25.2834 23.3199C27.1652 21.9177 29.5082 21.2167 32.3124 21.2167C33.567 21.2167 34.637 21.3643 35.5225 21.6595C36.445 21.9546 37.1829 22.379 37.7364 22.9324L31.6483 31.5665C31.39 31.2713 31.0026 31.0315 30.486 30.847C30.0063 30.6256 29.4344 30.5149 28.7703 30.5149C27.6633 30.5149 26.8331 30.847 26.2797 31.5111C25.7262 32.1384 25.4495 33.0608 25.4495 34.2785ZM41.3525 49.0006V21.7702H52.2004V49.0006H41.3525ZM46.7764 19.2242C45.1899 19.2242 43.8615 18.6892 42.7915 17.6192C41.7584 16.5122 41.2418 15.1655 41.2418 13.5789C41.2418 11.9923 41.7584 10.664 42.7915 9.59399C43.8615 8.48706 45.1899 7.93359 46.7764 7.93359C48.3999 7.93359 49.7283 8.48706 50.7614 9.59399C51.7945 10.664 52.3111 11.9923 52.3111 13.5789C52.3111 15.1655 51.7945 16.5122 50.7614 17.6192C49.7283 18.6892 48.3999 19.2242 46.7764 19.2242ZM110.211 49.6648C107.038 49.6648 104.252 49.0744 101.854 47.8937C99.456 46.6761 97.5742 44.9972 96.209 42.8571C94.8807 40.6802 94.2165 38.1896 94.2165 35.3854C94.2165 32.6181 94.8623 30.1644 96.1537 28.0243C97.482 25.8842 99.29 24.2054 101.577 22.9878C103.865 21.7333 106.448 21.106 109.326 21.106C112.167 21.106 114.676 21.6964 116.853 22.8771C119.03 24.0209 120.727 25.626 121.945 27.6922C123.199 29.7585 123.827 32.1199 123.827 34.7766C123.827 35.33 123.79 35.9204 123.716 36.5477C123.679 37.138 123.568 37.8391 123.384 38.6508L98.8103 38.8169V32.1753L119.344 32.0092L114.307 34.9426C114.307 33.4667 114.123 32.2675 113.754 31.3451C113.421 30.3858 112.905 29.6662 112.204 29.1866C111.503 28.7069 110.617 28.4671 109.547 28.4671C108.44 28.4671 107.481 28.7438 106.669 29.2973C105.857 29.8507 105.23 30.644 104.787 31.6772C104.382 32.7103 104.179 33.9648 104.179 35.4407C104.179 36.9535 104.4 38.2265 104.843 39.2596C105.322 40.2559 106.005 41.0123 106.891 41.5288C107.776 42.0454 108.883 42.3037 110.211 42.3037C111.503 42.3037 112.628 42.1007 113.587 41.6949C114.584 41.2521 115.488 40.5695 116.299 39.6471L121.723 45.0157C120.358 46.5654 118.716 47.7276 116.798 48.5025C114.879 49.2773 112.684 49.6648 110.211 49.6648Z" fill="white"/>
<path d="M91 18V53H57V18H91ZM62 22V28L72.8848 28.0566L62 33.9375V49H86V42.3184H73.2148L79.6875 31.9238V38.8955H86V22H62Z" fill="white"/>
<path d="M132.449 42.332H126V48.7808H132.449V42.332Z" fill="white"/>
</svg>
