<svg width="88" height="22" viewBox="0 0 88 22" fill="none" xmlns="http://www.w3.org/2000/svg">
<g clip-path="url(#clip0_282_39)">
<path d="M11.3623 0C12.1392 6.46665e-07 12.9139 0.158095 13.5381 0.50293L21.6709 5C21.983 5.17249 22.2359 5.37836 22.4189 5.62695C22.6018 5.87545 22.7168 6.18618 22.7168 6.51953C22.7168 6.85306 22.6019 7.1645 22.4189 7.41309C22.236 7.66157 21.9829 7.86662 21.6709 8.03906L20.7773 8.53223L21.6787 9.02539C21.9907 9.19786 22.236 9.40258 22.4189 9.65137C22.6019 9.90029 22.7246 10.2113 22.7246 10.5449C22.7245 10.8784 22.6018 11.1887 22.4189 11.4375C22.236 11.6864 21.9909 11.892 21.6787 12.0645L20.7773 12.5566L21.6787 13.0498C21.9907 13.2223 22.236 13.4271 22.4189 13.6758C22.6019 13.9247 22.7246 14.2357 22.7246 14.5693C22.7246 14.9029 22.6019 15.2139 22.4189 15.4629C22.236 15.7115 21.9907 15.9164 21.6787 16.0889L13.5312 20.5859C12.2827 21.2758 10.4272 21.2757 9.17871 20.5859L1.0459 16.0889C0.733885 15.9164 0.488608 15.7115 0.305664 15.4629C0.122668 15.2139 8.86645e-06 14.9029 0 14.5693C0 14.2357 0.122661 13.9247 0.305664 13.6758C0.488601 13.4271 0.733907 13.2223 1.0459 13.0498L1.93945 12.5566L1.0459 12.0645C0.733685 11.892 0.488662 11.6864 0.305664 11.4375C0.122774 11.1887 0.000103042 10.8784 0 10.5449C0 10.2113 0.12266 9.90029 0.305664 9.65137C0.488596 9.40258 0.733857 9.19786 1.0459 9.02539L1.93945 8.53223L1.0459 8.03906C0.733905 7.86661 0.480799 7.66156 0.297852 7.41309C0.114848 7.1645 0 6.85306 0 6.51953C4.55974e-05 6.18621 0.115007 5.87545 0.297852 5.62695C0.480837 5.37839 0.733788 5.17248 1.0459 5L9.17871 0.50293C9.803 0.158067 10.5852 0 11.3623 0ZM13.5312 16.5615C13.0631 16.8202 12.5094 16.989 11.9346 17.0537C10.9766 17.1614 9.95889 16.9924 9.17871 16.5615L2.74121 13.0088L1.27539 13.8096C1.01675 13.9525 0.835907 14.1116 0.733398 14.251C0.630913 14.3904 0.611328 14.4904 0.611328 14.5693C0.611334 14.6482 0.630929 14.7483 0.733398 14.8877C0.835913 15.027 1.01678 15.1862 1.27539 15.3291L9.41504 19.8262C10.4504 20.3983 12.2664 20.3983 13.3018 19.8262L21.4414 15.3291C21.6999 15.1862 21.881 15.027 21.9834 14.8877C22.0859 14.7483 22.1133 14.6482 22.1133 14.5693C22.1133 14.4904 22.0859 14.3904 21.9834 14.251C21.881 14.1116 21.7 13.9525 21.4414 13.8096L19.9834 13.0088L13.5312 16.5615ZM15.2715 11.5713L13.5312 12.5361C12.2827 13.226 10.4272 13.226 9.17871 12.5361L2.74121 8.9834L1.27539 9.78516C1.01665 9.92813 0.83588 10.0872 0.733398 10.2266C0.630917 10.366 0.611328 10.466 0.611328 10.5449C0.611398 10.6238 0.631095 10.7241 0.733398 10.8633C0.835948 11.0026 1.01694 11.1619 1.27539 11.3047L9.41504 15.8018C10.062 16.1592 11.013 16.3012 11.8887 16.2119C12.4141 16.1582 12.9135 16.0162 13.3018 15.8018L21.4414 11.3047C21.6998 11.1619 21.8809 11.0026 21.9834 10.8633C22.0857 10.7241 22.1132 10.6238 22.1133 10.5449C22.1133 10.466 22.0859 10.366 21.9834 10.2266C21.881 10.0872 21.7001 9.92813 21.4414 9.78516L19.9834 8.9834L15.2715 11.5713ZM11.6338 2.72363C11.2824 2.76985 10.972 2.88485 10.6826 3.08105C10.3725 3.28884 10.1861 3.5201 10.124 3.75098C10.0619 3.99345 10.0827 4.21324 10.1758 4.43262C10.2792 4.65205 10.4348 4.91767 10.6416 5.22949C10.7864 5.4489 10.9003 5.62216 10.9727 5.76074C11.045 5.89928 11.0762 6.03804 11.0762 6.16504C11.0762 6.29203 11.0036 6.4078 10.8691 6.51172C10.7141 6.62716 10.5483 6.67282 10.3623 6.67285C10.1761 6.6613 10.0005 6.60356 9.83496 6.47656C9.6488 6.33797 9.55566 6.17617 9.55566 6.00293C9.55583 5.82989 9.64857 5.66836 9.82422 5.50684L8.55176 4.54785C8.05538 4.92896 7.83892 5.35676 7.89062 5.8418C7.95271 6.33834 8.26273 6.82324 8.8418 7.28516C9.2348 7.59698 9.64862 7.80541 10.083 7.9209C10.5173 8.03632 10.9313 8.05935 11.3242 7.97852C11.717 7.90923 12.0578 7.75872 12.3369 7.50488C12.6782 7.23925 12.8756 6.96157 12.917 6.67285C12.9582 6.38431 12.9165 6.1301 12.8027 5.8877C12.6787 5.6568 12.5131 5.37983 12.2754 5.05664C12.1205 4.82598 12.0069 4.66407 11.9346 4.53711C11.8622 4.42169 11.8311 4.30585 11.8311 4.19043C11.8311 4.07494 11.8931 3.98221 12.0068 3.90137C12.1515 3.7976 12.2965 3.75115 12.4619 3.7627C12.6273 3.77431 12.7821 3.83249 12.9268 3.9248C13.0923 4.04029 13.1859 4.16709 13.1963 4.30566C13.2066 4.44425 13.1443 4.58309 13.0098 4.72168L14.4365 5.69141C14.8295 5.31029 14.9644 4.90583 14.8506 4.47852C14.7368 4.06288 14.3846 3.65852 13.8057 3.28906C13.4541 3.06975 13.0919 2.89704 12.7197 2.80469C12.3474 2.71235 11.9854 2.67745 11.6338 2.72363Z" fill="white"/>
<path d="M34.7501 17.1934C33.9608 17.1934 33.2408 17.0654 32.5901 16.8094C31.9501 16.5427 31.4328 16.1481 31.0381 15.6254C30.6541 15.0921 30.4461 14.4201 30.4141 13.6094H33.0701C33.1128 13.9827 33.2621 14.3187 33.5181 14.6174C33.7848 14.9161 34.1848 15.0654 34.7181 15.0654C35.1768 15.0654 35.5181 14.9641 35.7421 14.7614C35.9768 14.5587 36.0941 14.2921 36.0941 13.9614C36.0941 13.8121 36.0674 13.6734 36.0141 13.5454C35.9714 13.4174 35.8808 13.2947 35.7421 13.1774C35.6034 13.0494 35.3901 12.9214 35.1021 12.7934C34.8248 12.6654 34.4514 12.5267 33.9821 12.3774C33.1074 12.1001 32.4248 11.7747 31.9341 11.4014C31.4434 11.0281 31.0968 10.6281 30.8941 10.2014C30.7021 9.77471 30.6061 9.33738 30.6061 8.88938C30.6168 8.16405 30.7981 7.56138 31.1501 7.08138C31.5021 6.59071 31.9714 6.22271 32.5581 5.97738C33.1448 5.73205 33.8008 5.60938 34.5261 5.60938C35.2514 5.60938 35.9128 5.73738 36.5101 5.99338C37.1181 6.23871 37.6088 6.6067 37.9821 7.09737C38.3554 7.58804 38.5474 8.19604 38.5581 8.92137H35.8381C35.8274 8.63337 35.7048 8.36137 35.4701 8.10537C35.2354 7.84937 34.8888 7.72137 34.4301 7.72137C34.0994 7.73204 33.8168 7.82805 33.5821 8.00938C33.3581 8.18005 33.2461 8.42538 33.2461 8.74538C33.2461 9.02271 33.3634 9.26271 33.5981 9.46538C33.8328 9.66805 34.1634 9.8547 34.5901 10.0254C35.0274 10.1961 35.5341 10.3774 36.1101 10.5694C36.5474 10.7187 36.9314 10.8947 37.2621 11.0974C37.6034 11.2894 37.8861 11.5187 38.1101 11.7854C38.3341 12.0414 38.5048 12.3347 38.6221 12.6654C38.7394 12.9961 38.7981 13.3694 38.7981 13.7854C38.7981 14.4681 38.6221 15.0654 38.2701 15.5774C37.9288 16.0894 37.4541 16.4894 36.8461 16.7774C36.2381 17.0547 35.5394 17.1934 34.7501 17.1934ZM42.3425 17.0014V7.97738H39.1265V5.80137H48.0865V7.97738H44.8545V17.0014H42.3425ZM46.8582 17.0014L50.9222 5.80137H53.8182L57.8982 17.0014H55.2262L54.4422 14.6814H50.2822L49.4822 17.0014H46.8582ZM50.9862 12.6654H53.7542L52.3462 8.58538L50.9862 12.6654ZM63.1216 17.1934C61.9589 17.1934 60.9669 16.9481 60.1456 16.4574C59.3243 15.9561 58.6949 15.2734 58.2576 14.4094C57.8309 13.5454 57.6176 12.5534 57.6176 11.4334C57.6176 10.3134 57.8256 9.31605 58.2416 8.44138C58.6683 7.55605 59.2923 6.86271 60.1136 6.36138C60.9349 5.86005 61.9376 5.60938 63.1216 5.60938C64.5083 5.60938 65.6496 5.96138 66.5456 6.66538C67.4416 7.35871 67.9909 8.34538 68.1936 9.62538H65.4256C65.3189 9.08138 65.0576 8.66005 64.6416 8.36138C64.2363 8.06271 63.7136 7.91337 63.0736 7.91337C62.5189 7.91337 62.0229 8.04671 61.5856 8.31337C61.1483 8.56938 60.8069 8.95871 60.5616 9.48138C60.3163 9.99338 60.1936 10.6441 60.1936 11.4334C60.1936 12.2014 60.3109 12.8467 60.5456 13.3694C60.7909 13.8814 61.1323 14.2707 61.5696 14.5374C62.0069 14.7934 62.5083 14.9214 63.0736 14.9214C63.7136 14.9214 64.2363 14.7881 64.6416 14.5214C65.0576 14.2441 65.3189 13.8547 65.4256 13.3534H68.1936C67.9909 14.5481 67.4416 15.4867 66.5456 16.1694C65.6496 16.8521 64.5083 17.1934 63.1216 17.1934ZM78.4631 5.80137L74.5431 10.0574L78.9111 17.0014H75.9831L72.8791 11.8334L71.9031 12.9054V17.0014H69.3751V5.80137H71.9031V9.59337L75.3591 5.80137H78.4631ZM82.9689 17.1934C82.1795 17.1934 81.4595 17.0654 80.8089 16.8094C80.1689 16.5427 79.6515 16.1481 79.2569 15.6254C78.8729 15.0921 78.6649 14.4201 78.6329 13.6094H81.2889C81.3315 13.9827 81.4809 14.3187 81.7369 14.6174C82.0035 14.9161 82.4035 15.0654 82.9369 15.0654C83.3955 15.0654 83.7369 14.9641 83.9609 14.7614C84.1955 14.5587 84.3129 14.2921 84.3129 13.9614C84.3129 13.8121 84.2862 13.6734 84.2329 13.5454C84.1902 13.4174 84.0995 13.2947 83.9609 13.1774C83.8222 13.0494 83.6089 12.9214 83.3209 12.7934C83.0435 12.6654 82.6702 12.5267 82.2009 12.3774C81.3262 12.1001 80.6435 11.7747 80.1529 11.4014C79.6622 11.0281 79.3155 10.6281 79.1129 10.2014C78.9209 9.77471 78.8249 9.33738 78.8249 8.88938C78.8355 8.16405 79.0169 7.56138 79.3689 7.08138C79.7209 6.59071 80.1902 6.22271 80.7769 5.97738C81.3635 5.73205 82.0195 5.60938 82.7449 5.60938C83.4702 5.60938 84.1315 5.73738 84.7289 5.99338C85.3369 6.23871 85.8275 6.6067 86.2009 7.09737C86.5742 7.58804 86.7662 8.19604 86.7769 8.92137H84.0569C84.0462 8.63337 83.9235 8.36137 83.6889 8.10537C83.4542 7.84937 83.1075 7.72137 82.6489 7.72137C82.3182 7.73204 82.0355 7.82805 81.8009 8.00938C81.5769 8.18005 81.4649 8.42538 81.4649 8.74538C81.4649 9.02271 81.5822 9.26271 81.8169 9.46538C82.0515 9.66805 82.3822 9.8547 82.8089 10.0254C83.2462 10.1961 83.7529 10.3774 84.3289 10.5694C84.7662 10.7187 85.1502 10.8947 85.4809 11.0974C85.8222 11.2894 86.1049 11.5187 86.3289 11.7854C86.5529 12.0414 86.7235 12.3347 86.8409 12.6654C86.9582 12.9961 87.0169 13.3694 87.0169 13.7854C87.0169 14.4681 86.8409 15.0654 86.4889 15.5774C86.1475 16.0894 85.6729 16.4894 85.0649 16.7774C84.4569 17.0547 83.7582 17.1934 82.9689 17.1934Z" fill="white"/>
</g>
<defs>
<clipPath id="clip0_282_39">
<rect width="88" height="22" fill="white"/>
</clipPath>
</defs>
</svg>
